<?xml version="1.0" encoding="utf-8"?>
<!-- Uploaded SVG logo file -->
<svg xmlns="http://www.w3.org/2000/svg" xmlns:xlink="http://www.w3.org/1999/xlink" viewBox="0 0 216 216" style="enable-background:new 0 0 216 216">
  <style type="text/css">
    .st0 { fill: #1877F2; }
    .st1 { fill: #FFFFFF; }
  </style>
  <g>
    <path class="st0" d="M204.1,0H11.9C5.3,0,0,5.3,0,11.9v192.3C0,210.7,5.3,216,11.9,216H116V132.5h-28V99h28V76.2c0-27.8,17-43,41.8-43c11.9,0,22.2,0.9,25.2,1.3v29.2h-17.3c-13.6,0-16.2,6.5-16.2,15.9V99h32.4l-4.2,33.5h-28.1V216h55c6.6,0,11.9-5.3,11.9-11.9V11.9C216,5.3,210.7,0,204.1,0z"/>
    <path class="st1" d="M150.1,132.5l4.2-33.5h-32.4V78.5c0-9.4,2.6-15.9,16.2-15.9h17.3V33.3c-3-0.4-13.3-1.3-25.2-1.3c-24.8,0-41.8,15.2-41.8,43V99h-28v33.5h28V216h34.5V132.5H150.1z"/>
  </g>
</svg>
